<svg width="88" height="20" viewBox="0 0 88 20" fill="none" xmlns="http://www.w3.org/2000/svg">
<path d="M28.6717 11.9168L30.6566 9.56526V19.9871H28.6717V11.9168Z" fill="white"/>
<path d="M43.8897 0.0565831H45.8747V8.61985L43.8897 10.9553V0.0565831Z" fill="white"/>
<path d="M30.6566 10.9553V9.56526L31.0977 9.0647H43.8897V10.9553H30.6566Z" fill="white"/>
<path d="M21.2767 5.92592C19.893 3.64626 17.4009 2.12511 14.5564 2.12511C10.2079 2.12511 6.68271 5.68019 6.68271 10.0656C6.68271 13.3783 8.69425 16.2172 11.5527 17.4079L10.1664 19.0448C6.88708 17.411 4.63158 14.0039 4.63158 10.0656C4.63158 4.53777 9.07507 0.0565831 14.5564 0.0565831C17.9044 0.0565831 20.8652 1.72839 22.6627 4.28938L21.2767 5.92592Z" fill="white"/>
<path d="M66.2757 0.056666L67.6977 0.0566236L67.6977 17.7392L65.7778 19.9989V3.70319L51.9398 20L50.5566 19.9904V18.6654L66.2757 0.056666Z" fill="white"/>
<path d="M72.2306 0H88L86.3459 2.0018H81.7436V7.45116L79.8217 9.70842V2.0018H72.2306V0Z" fill="white"/>
<path d="M1.98496 8.9126H6.17544V10.9144H1.98496V19.9225H0V11.248L1.98496 8.9126Z" fill="white"/>
</svg>
