<svg width="75" height="75" viewBox="0 0 75 75" fill="none" xmlns="http://www.w3.org/2000/svg">
<circle cx="39.5" cy="49.5" r="25.5" fill="#BD94FC"/>
<g filter="url(#filter0_bii_0_240)">
<rect width="75" height="75" rx="37.5" fill="white" fill-opacity="0.01"/>
</g>
<path d="M31.279 44.5073C34.0034 45.8955 36.8217 47.3315 39.5931 48.7436C41.9089 43.3857 49.5411 45.4767 52.8028 39.0753C55.3813 34.0147 53.3384 27.6891 46.3923 24.3678C40.5016 21.5298 34.0767 22.1788 30.8678 28.825C33.5922 30.2132 35.2832 31.0748 37.9606 32.439C39.0185 30.3629 41.0093 30.2876 42.6754 31.0821C44.2255 31.8719 45.5447 33.5792 44.6354 35.1317C41.7693 39.8278 33.9625 37.2666 31.279 44.5073ZM30.8066 55.6533C33.39 56.9696 36.2502 56.4656 37.4623 54.0867C38.6965 51.6646 37.4231 49.0544 34.8396 47.7381C32.3031 46.4457 29.4429 46.9497 28.2088 49.3718C26.9967 51.7507 28.2701 54.3609 30.8066 55.6533Z" fill="white"/>
<defs>
<filter id="filter0_bii_0_240" x="-30" y="-30" width="135" height="135" filterUnits="userSpaceOnUse" color-interpolation-filters="sRGB">
<feFlood flood-opacity="0" result="BackgroundImageFix"/>
<feGaussianBlur in="BackgroundImageFix" stdDeviation="15"/>
<feComposite in2="SourceAlpha" operator="in" result="effect1_backgroundBlur_0_240"/>
<feBlend mode="normal" in="SourceGraphic" in2="effect1_backgroundBlur_0_240" result="shape"/>
<feColorMatrix in="SourceAlpha" type="matrix" values="0 0 0 0 0 0 0 0 0 0 0 0 0 0 0 0 0 0 127 0" result="hardAlpha"/>
<feOffset dx="10" dy="10"/>
<feGaussianBlur stdDeviation="2.5"/>
<feComposite in2="hardAlpha" operator="arithmetic" k2="-1" k3="1"/>
<feColorMatrix type="matrix" values="0 0 0 0 1 0 0 0 0 1 0 0 0 0 1 0 0 0 0.1 0"/>
<feBlend mode="normal" in2="shape" result="effect2_innerShadow_0_240"/>
<feColorMatrix in="SourceAlpha" type="matrix" values="0 0 0 0 0 0 0 0 0 0 0 0 0 0 0 0 0 0 127 0" result="hardAlpha"/>
<feOffset dy="-5"/>
<feGaussianBlur stdDeviation="12.5"/>
<feComposite in2="hardAlpha" operator="arithmetic" k2="-1" k3="1"/>
<feColorMatrix type="matrix" values="0 0 0 0 0.113725 0 0 0 0 0.631373 0 0 0 0 0.94902 0 0 0 0.35 0"/>
<feBlend mode="normal" in2="effect2_innerShadow_0_240" result="effect3_innerShadow_0_240"/>
</filter>
</defs>
</svg>
